# xmcd
#
# Track frame offsets: 
#        150
#        15198
#        31611
#        34450
#        52092
#        55243
#        69761
#        81012
#        96817
#        108516
#        123551
#        138964
#        153433
#        154871
#        171423
#        184537
#        202402
#
# Disc length: 3115 seconds
#
# Revision: 0
# Processed by: cddbd v1.5.2PL0 Copyright (c) Steve Scherf et al.
# Submitted via: ExactAudioCopy v1.3
#
DISCID=e10c2911
DTITLE=Funkstörung - Funkstörung
DYEAR=2015
DGENRE=Electronic
TTITLE0=Fall Into You (feat. Audego)
TTITLE1=Laid Out (feat. Anothr)
TTITLE2=Iatc
TTITLE3=So Simple (feat. Jamie Lidell)
TTITLE4=Hpe
TTITLE5=Drown In Time (feat. Anothr)
TTITLE6=Chnnl
TTITLE7=Killers (feat. Taprikk Sweezee)
TTITLE8=Slo
TTITLE9=Who Is Who? (feat. Adi)
TTITLE10=All The Things (feat. Anothr)
TTITLE11=I Love Him So (feat. Jay-Jay Johanson)
TTITLE12=Krktr
TTITLE13=The Other Way Round (feat. Anothr)
TTITLE14=Solute
TTITLE15=Pseudonyms (feat. Anothr)
TTITLE16=Sevn
EXTD=
EXTT0=
EXTT1=
EXTT2=
EXTT3=
EXTT4=
EXTT5=
EXTT6=
EXTT7=
EXTT8=
EXTT9=
EXTT10=
EXTT11=
EXTT12=
EXTT13=
EXTT14=
EXTT15=
EXTT16=
PLAYORDER=
